HIERARCHY
ROOT Hips
{
	OFFSET -3.958830 18.904000 13.208200
	CHANNELS 6 Xposition Yposition Zposition Zrotation Yrotation Xrotation 
	JOINT LHipJoint
	{
		OFFSET 0.000000 0.000000 0.000000
		CHANNELS 3 Zrotation Yrotation Xrotation
		JOINT LeftUpLeg
		{
			OFFSET 1.800000 -1.400000 0.085000
			CHANNELS 3 Zrotation Yrotation Xrotation
			JOINT LeftLeg
			{
				OFFSET 2.215000 -6.000000 0.000000
				CHANNELS 3 Zrotation Yrotation Xrotation
				JOINT LeftFoot
				{
					OFFSET 2.500000 -6.900000 0.000000
					CHANNELS 3 Zrotation Yrotation Xrotation
					JOINT LeftToeBase
					{
						OFFSET 0.200000 -0.500000 1.950000
						CHANNELS 3 Zrotation Yrotation Xrotation
						End Site
						{
							OFFSET 0.000000 0.000000 0.000000
						}
					}
				}
			}
		}
	}
	JOINT RHipJoint
	{
		OFFSET 0.000000 0.000000 0.000000
		CHANNELS 3 Zrotation Yrotation Xrotation
		JOINT RightUpLeg
		{
			OFFSET -1.800000 -1.400000 0.085000
			CHANNELS 3 Zrotation Yrotation Xrotation
			JOINT RightLeg
			{
				OFFSET -2.215000 -6.000000 0.000000
				CHANNELS 3 Zrotation Yrotation Xrotation
				JOINT RightFoot
				{
					OFFSET -2.500000 -6.900000 0.000000
					CHANNELS 3 Zrotation Yrotation Xrotation
					JOINT RightToeBase
					{
						OFFSET -0.200000 -0.500000 1.950000
						CHANNELS 3 Zrotation Yrotation Xrotation
						End Site
						{
							OFFSET 0.000000 0.000000 0.000000
						}
					}
				}
			}
		}
	}
	JOINT LowerBack
	{
		OFFSET 0.000000 0.000000 0.000000
		CHANNELS 3 Zrotation Yrotation Xrotation
		JOINT Spine
		{
			OFFSET -0.087000 1.940000 -0.288900
			CHANNELS 3 Zrotation Yrotation Xrotation
			JOINT Spine1
			{
				OFFSET 0.000000 1.950000 0.060000
				CHANNELS 3 Zrotation Yrotation Xrotation
				JOINT Neck
				{
					OFFSET 0.000000 0.000000 0.000000
					CHANNELS 3 Zrotation Yrotation Xrotation
					JOINT Neck1
					{
						OFFSET 0.000000 1.600000 0.340000
						CHANNELS 3 Zrotation Yrotation Xrotation
						JOINT Head
						{
							OFFSET 0.000000 1.667000 -0.240000
							CHANNELS 3 Zrotation Yrotation Xrotation
							End Site
							{
								OFFSET 0.000000 0.000000 0.000000
							}
						}
					}
				}
				JOINT LeftShoulder
				{
					OFFSET 0.000000 0.000000 0.000000
					CHANNELS 3 Zrotation Yrotation Xrotation
					JOINT LeftArm
					{
						OFFSET 2.700000 1.550000 -0.730000
						CHANNELS 3 Zrotation Yrotation Xrotation
						JOINT LeftForeArm
						{
							OFFSET 5.450000 0.000000 0.000000
							CHANNELS 3 Zrotation Yrotation Xrotation
							JOINT LeftHand
							{
								OFFSET 3.450000 0.000000 0.000000
								CHANNELS 3 Zrotation Yrotation Xrotation
								JOINT LeftHandIndex1
								{
									OFFSET 0.750000 0.000000 0.000000
									CHANNELS 3 Zrotation Yrotation Xrotation
									End Site
									{
										OFFSET 0.000000 0.000000 0.000000
									}
								}
							}
						}
					}
				}
				JOINT RightShoulder
				{
					OFFSET 0.000000 0.000000 0.000000
					CHANNELS 3 Zrotation Yrotation Xrotation
					JOINT RightArm
					{
						OFFSET -2.700000 1.550000 -0.730000
						CHANNELS 3 Zrotation Yrotation Xrotation
						JOINT RightForeArm
						{
							OFFSET -5.450000 0.000000 0.000000
							CHANNELS 3 Zrotation Yrotation Xrotation
							JOINT RightHand
							{
								OFFSET -3.450000 0.000000 0.000000
								CHANNELS 3 Zrotation Yrotation Xrotation
								JOINT RightHandIndex1
								{
									OFFSET -0.750000 0.000000 0.000000
									CHANNELS 3 Zrotation Yrotation Xrotation
									End Site
									{
										OFFSET 0.000000 0.000000 0.000000
									}
								}
							}
						}
					}
				}
			}
		}
	}
}
MOTION
Frames: 9
Frame Time: 0.016667
-0.478510 14.058300 -3.497370 -27.186534 22.027172 32.634364 -16.018239 9.222505 6.721625 16.951687 -22.202988 -52.311127 -66.806818 36.974736 43.108971 2.950134 15.896467 0.033165 -0.650500 -1.039150 -0.477100 18.393497 -5.968968 4.283755 26.267881 14.659446 -50.494420 -64.609576 24.454689 62.967766 -2.932817 -16.886704 -0.498807 -0.560830 1.238230 0.254940 -2.346201 -4.533733 -10.664075 13.135232 -7.969727 59.089427 4.487838 -2.141973 18.930241 1.455062 9.692931 -16.300567 13.155781 -6.247644 41.271918 4.955610 -4.387550 16.310890 -6.335008 -35.685606 4.597040 5.201675 -21.418071 -7.041386 19.750595 -8.569273 -3.101183 -4.849511 2.839027 -0.021280 0.746220 -0.688730 0.015230 2.430624 24.972441 12.858169 27.102157 -23.580737 -26.563077 -27.111111 71.892715 -20.658280 1.434828 -1.397726 -0.436050 0.269130 0.573230 0.153770 
-0.505450 14.064220 -3.506140 -27.198195 21.835576 32.733146 -15.979581 9.092099 6.756723 17.676904 -22.040372 -52.948827 -64.355974 37.152150 44.715972 3.078147 15.841406 0.007879 -0.563320 -0.875330 -0.458810 18.440251 -5.980822 4.358677 25.270404 15.172509 -51.474505 -63.074125 25.077572 66.078298 -3.088297 -17.270168 -0.587070 -0.550460 1.092890 0.275940 -2.453667 -4.254015 -10.718199 13.059206 -8.056015 59.056811 3.702355 -2.098399 18.083385 1.256500 10.297069 -16.992636 14.506315 -7.056609 43.306653 5.434930 -4.629510 17.032620 -6.661269 -36.024545 5.195819 5.724630 -20.454946 -7.231455 19.438009 -8.766454 -2.837079 -4.718696 2.953138 -0.054360 0.666750 -0.581030 0.040720 3.071638 24.997477 13.012436 27.307645 -22.609356 -26.263254 -27.762368 72.087569 -21.242956 1.516843 -1.439342 -0.291970 0.150570 0.475160 0.197290 
-0.518830 14.084210 -3.519680 -28.011351 21.724684 31.339463 -16.051189 9.207044 6.715260 18.341365 -21.481019 -51.993958 -61.807474 38.356643 47.333898 2.952151 16.204759 -0.091270 -0.392400 -0.668280 -0.227070 18.380167 -5.826097 4.361862 24.127960 15.316230 -51.063678 -60.661276 25.585800 71.321605 -3.364905 -17.850723 -0.651130 -0.396550 1.074220 0.219800 -2.251031 -4.686966 -10.659018 12.230652 -7.513918 61.264517 4.216204 -1.930131 17.622174 2.418311 10.081972 -14.785225 14.483297 -7.097884 40.587145 2.648690 -2.478180 9.133260 -5.433759 -32.806313 3.985552 5.032368 -23.302684 -6.157038 20.088221 -7.833376 -3.050905 -4.715754 2.673269 0.051440 0.638630 -0.481200 0.083210 -0.018958 22.907142 11.684827 26.493235 -17.497353 -25.651982 -30.959465 73.772992 -24.230685 1.408902 -1.133398 -0.365550 0.403360 0.407040 0.133790 
-0.510310 14.144500 -3.516230 -30.197671 20.105744 30.608081 -16.055492 9.145084 6.738158 19.771267 -19.481199 -51.968125 -59.378409 39.219893 49.009798 2.824650 16.341216 -0.224696 -0.234250 -0.513240 -0.003480 18.397857 -5.689284 4.495679 23.080190 16.207687 -49.646392 -57.407788 25.316854 75.141924 -3.522680 -17.964050 -0.704053 -0.322920 0.940860 0.258620 -2.258700 -4.633813 -10.692751 12.522251 -6.717118 62.984989 3.550782 -0.719147 16.407135 3.138967 10.021715 -13.599125 14.494219 -6.823804 40.857354 0.822930 -0.703080 3.412530 -6.584826 -31.708865 3.292145 5.577039 -24.955690 -5.969732 20.072050 -6.881823 -3.100237 -4.665688 2.557615 0.184780 0.555160 -0.327610 0.057660 -0.195963 22.535492 10.861496 25.150883 -14.805445 -25.686137 -33.539783 76.188301 -27.376838 1.376808 -0.920275 -0.340400 0.443240 0.350290 0.064660 
-0.470870 14.224320 -3.482410 -31.552730 18.298492 29.442576 -16.087759 9.466883 6.684730 19.368500 -18.046747 -49.248192 -57.606420 40.486090 50.676746 2.713080 16.424595 -0.385255 -0.021670 -0.249650 0.197690 18.317039 -5.861244 4.280743 20.467211 14.997763 -45.348503 -53.919121 24.255048 77.847406 -3.580979 -17.693419 -0.681399 -0.185900 0.773720 0.265090 -2.155389 -4.853596 -10.522377 12.057659 -4.900719 65.279917 3.962460 0.215448 16.887350 3.414665 9.624442 -12.523019 13.600088 -6.063399 40.614448 0.497290 0.393000 -3.310260 -7.105285 -31.730491 2.278633 6.841031 -26.129004 -6.545234 19.888313 -5.782400 -3.161390 -4.604328 2.525204 0.279400 0.450850 -0.191740 0.024920 -0.356284 23.483789 10.299467 22.555835 -12.673069 -25.730182 -30.438603 75.667799 -25.354742 1.380282 -0.972020 -0.281030 0.455880 0.276330 0.014330 
-0.441630 14.280910 -3.430000 -31.249232 17.700855 28.413349 -16.097672 10.136230 6.615658 16.899054 -18.041220 -44.358907 -56.150653 41.833766 52.595434 2.630534 16.540181 -0.564868 0.223640 0.046760 0.362920 18.168171 -6.550466 3.572648 14.012557 11.533710 -40.921621 -43.675650 18.064806 81.174996 -3.239212 -15.929850 -0.411533 0.002220 0.556930 0.284610 -2.061186 -5.111770 -10.143416 11.350615 -3.535430 66.878802 4.821667 0.174564 17.689985 3.007696 9.172563 -11.911733 12.432838 -5.045540 41.242223 2.185330 0.651810 -9.882420 -7.771891 -33.260630 1.739796 8.683266 -25.648963 -7.664837 19.448794 -5.079610 -3.225302 -4.484438 2.564076 0.411370 0.303350 -0.026620 0.010640 0.915944 25.473849 9.388120 18.250551 -10.570704 -26.808442 -30.697423 75.769300 -26.081144 1.371481 -0.984589 -0.220560 0.418800 0.178410 -0.037580 
-0.421480 14.322560 -3.402290 -29.854791 18.053677 28.702638 -16.020073 10.632719 6.518464 12.498342 -19.446356 -40.522186 -48.505035 40.979374 58.317094 2.530826 16.921440 -0.857043 0.423460 0.323160 0.460160 18.103586 -7.402767 2.882591 7.309257 8.641559 -37.315331 -34.871596 11.232103 82.321257 -2.874437 -14.168174 -0.119367 0.161190 0.343140 0.317250 -2.203683 -4.865899 -9.781650 11.768009 -3.634858 67.141128 3.891530 -0.526146 18.240554 2.496332 8.885613 -12.084282 11.901798 -3.779832 42.427533 3.967980 1.751000 -17.084120 -6.515951 -34.950369 1.512089 10.385164 -24.304776 -8.570809 18.696780 -5.434154 -3.276433 -4.352573 2.592132 0.576620 0.156850 0.157130 -0.014010 0.611455 26.959864 8.823668 18.019692 -5.299933 -27.965883 -31.323210 73.164160 -25.916102 1.342184 -0.939965 -0.159770 0.370340 0.122610 -0.081760 
-0.410470 14.423760 -3.394850 -29.711030 17.078345 29.668382 -15.918124 10.783389 6.498224 10.527323 -19.099038 -40.233463 -41.512750 39.068228 62.219985 2.436479 16.998851 -0.998492 0.501530 0.404850 0.552890 18.127198 -7.890049 2.645123 3.291023 8.325239 -34.255570 -28.834410 6.779141 80.567720 -2.610157 -12.804843 0.158656 0.170560 0.168240 0.325130 -2.436492 -4.331702 -9.661595 11.658652 -3.229653 68.220265 2.148023 0.137538 16.437585 1.956745 8.457044 -12.964077 11.399658 -2.719877 46.921398 5.216230 3.344170 -21.993060 -7.263807 -36.751503 1.965498 13.246889 -22.359356 -9.553600 17.777068 -6.339498 -3.143807 -4.211240 2.523473 0.746260 0.011640 0.313200 -0.053110 2.454541 29.500529 8.417654 14.919793 1.743108 -27.117949 -31.166826 67.306253 -22.710852 1.457000 -0.916948 -0.129700 0.331190 0.086330 -0.135920 
-0.467830 14.567570 -3.405350 -26.414382 16.330364 31.774893 -15.959786 11.109618 6.477191 6.821893 -20.028496 -41.360759 -33.484354 35.235609 65.487893 2.341566 16.755370 -0.950348 0.479240 0.320610 0.605290 18.046614 -8.118608 2.431651 -0.773660 7.865127 -33.061977 -26.792720 5.875047 78.032672 -2.450038 -12.006732 0.363323 0.087380 0.072720 0.264440 -2.319431 -4.659358 -9.625729 7.887357 -0.430806 70.598151 3.663296 1.182555 12.000396 0.546270 7.203840 -14.211433 8.637390 -1.622870 51.802441 8.402970 3.789210 -24.538340 -7.336732 -38.209732 1.911598 14.790666 -21.239302 -10.169978 16.962315 -8.037882 -2.968176 -4.041361 2.444281 0.894120 -0.128380 0.388060 -0.075670 5.518971 32.812755 8.340254 10.378282 7.183759 -25.614842 -30.233757 61.318632 -18.650816 1.652414 -0.882178 -0.163440 0.343600 0.061620 -0.187270 
